<svg 
 xmlns="http://www.w3.org/2000/svg"
 xmlns:xlink="http://www.w3.org/1999/xlink"
 width="353px" height="348px">
<path fill-rule="evenodd"  stroke-width="1px" stroke="rgb(234, 228, 224)" fill-opacity="0" fill="rgb(254, 132, 3)"
 d="M166.629,6.469 C217.906,16.000 274.712,26.917 308.647,51.454 C343.775,75.530 356.032,113.225 345.744,165.657 C335.230,218.670 326.094,265.755 298.160,289.971 C271.424,316.351 225.889,319.862 170.258,335.700 C143.069,341.624 117.607,346.074 94.556,343.664 C71.593,341.561 51.040,332.598 35.855,318.966 C3.517,290.102 -1.418,248.066 9.714,199.652 C21.304,151.368 29.922,92.471 51.076,51.778 C61.876,31.677 76.475,16.924 96.279,9.964 C115.857,2.691 140.640,3.212 166.629,6.469 "/>
</svg>