<svg 
 xmlns="http://www.w3.org/2000/svg"
 xmlns:xlink="http://www.w3.org/1999/xlink"
 width="555px" height="545px">
<path fill-rule="evenodd"  stroke-width="1px" stroke="rgb(234, 228, 224)" fill-opacity="0" fill="rgb(254, 132, 3)"
 d="M309.098,9.187 C386.099,27.609 438.658,57.769 474.210,92.683 C508.662,127.624 537.824,180.164 548.674,250.624 C560.464,321.031 532.433,395.086 484.692,445.354 C436.476,497.104 368.549,525.065 289.549,537.499 C209.589,549.443 131.297,526.894 79.085,476.615 C26.104,426.153 -0.745,361.840 4.449,293.249 C7.177,257.992 16.947,223.212 32.975,187.209 C48.999,151.572 71.281,114.710 98.959,83.756 C126.583,52.779 159.602,27.702 195.833,15.006 C231.958,1.890 271.296,1.155 309.098,9.187 "/>
</svg>