<svg 
 xmlns="http://www.w3.org/2000/svg"
 xmlns:xlink="http://www.w3.org/1999/xlink"
 width="57px" height="58px">
<path fill-rule="evenodd"  stroke-width="1px" stroke="rgb(230, 230, 230)" fill-opacity="0" fill="rgb(254, 132, 3)"
 d="M48.500,44.500 C51.261,44.500 53.500,46.738 53.500,49.500 C53.500,52.261 51.261,54.500 48.500,54.500 C45.738,54.500 43.500,52.261 43.500,49.500 C43.500,46.738 45.738,44.500 48.500,44.500 Z"/>
<path fill-rule="evenodd"  fill="rgb(227, 227, 227)"
 d="M28.500,44.500 C31.261,44.500 33.500,46.738 33.500,49.500 C33.500,52.261 31.261,54.500 28.500,54.500 C25.739,54.500 23.500,52.261 23.500,49.500 C23.500,46.738 25.739,44.500 28.500,44.500 Z"/>
<path fill-rule="evenodd"  stroke-width="1px" stroke="rgb(230, 230, 230)" fill-opacity="0" fill="rgb(254, 132, 3)"
 d="M8.500,44.500 C11.261,44.500 13.500,46.738 13.500,49.500 C13.500,52.261 11.261,54.500 8.500,54.500 C5.739,54.500 3.500,52.261 3.500,49.500 C3.500,46.738 5.739,44.500 8.500,44.500 Z"/>
<path fill-rule="evenodd"  fill="rgb(227, 227, 227)"
 d="M48.500,23.500 C51.261,23.500 53.500,25.738 53.500,28.500 C53.500,31.261 51.261,33.500 48.500,33.500 C45.738,33.500 43.500,31.261 43.500,28.500 C43.500,25.738 45.738,23.500 48.500,23.500 Z"/>
<path fill-rule="evenodd"  fill="rgb(254, 132, 3)"
 d="M28.500,23.500 C31.261,23.500 33.500,25.738 33.500,28.500 C33.500,31.261 31.261,33.500 28.500,33.500 C25.739,33.500 23.500,31.261 23.500,28.500 C23.500,25.738 25.739,23.500 28.500,23.500 Z"/>
<path fill-rule="evenodd"  fill="rgb(227, 227, 227)"
 d="M8.500,23.500 C11.261,23.500 13.500,25.738 13.500,28.500 C13.500,31.261 11.261,33.500 8.500,33.500 C5.739,33.500 3.500,31.261 3.500,28.500 C3.500,25.738 5.739,23.500 8.500,23.500 Z"/>
<path fill-rule="evenodd"  stroke-width="1px" stroke="rgb(230, 230, 230)" fill-opacity="0" fill="rgb(254, 132, 3)"
 d="M48.500,3.500 C51.261,3.500 53.500,5.738 53.500,8.500 C53.500,11.261 51.261,13.500 48.500,13.500 C45.738,13.500 43.500,11.261 43.500,8.500 C43.500,5.738 45.738,3.500 48.500,3.500 Z"/>
<path fill-rule="evenodd"  fill="rgb(227, 227, 227)"
 d="M28.500,3.500 C31.261,3.500 33.500,5.738 33.500,8.500 C33.500,11.261 31.261,13.500 28.500,13.500 C25.739,13.500 23.500,11.261 23.500,8.500 C23.500,5.738 25.739,3.500 28.500,3.500 Z"/>
<path fill-rule="evenodd"  stroke-width="1px" stroke="rgb(230, 230, 230)" fill-opacity="0" fill="rgb(254, 132, 3)"
 d="M8.500,3.500 C11.261,3.500 13.500,5.738 13.500,8.500 C13.500,11.261 11.261,13.500 8.500,13.500 C5.739,13.500 3.500,11.261 3.500,8.500 C3.500,5.738 5.739,3.500 8.500,3.500 Z"/>
</svg>